<?xml version="1.0" encoding="UTF-8" standalone="no"?>
<!DOCTYPE svg PUBLIC "-//W3C//DTD SVG 1.1//EN"
 "http://www.w3.org/Graphics/SVG/1.1/DTD/svg11.dtd">
<!-- Generated by graphviz version 12.2.1 (20241206.2353)
 -->
<!-- Pages: 1 -->
<svg width="5862pt" height="487pt"
 viewBox="0.00 0.00 5862.05 486.50" xmlns="http://www.w3.org/2000/svg" xmlns:xlink="http://www.w3.org/1999/xlink">
<g id="graph0" class="graph" transform="scale(1 1) rotate(0) translate(4 482.5)">
<polygon fill="white" stroke="none" points="-4,4 -4,-482.5 5858.05,-482.5 5858.05,4 -4,4"/>
<!-- 0 -->
<g id="node1" class="node">
<title>0</title>
<ellipse fill="none" stroke="black" cx="3208.67" cy="-460.5" rx="86.67" ry="18"/>
<text text-anchor="middle" x="3208.67" y="-455.45" font-family="Times New Roman,serif" font-size="14.00">f583&lt;0.0352941193</text>
</g>
<!-- 1 -->
<g id="node2" class="node">
<title>1</title>
<ellipse fill="none" stroke="black" cx="2225.67" cy="-372" rx="86.67" ry="18"/>
<text text-anchor="middle" x="2225.67" y="-366.95" font-family="Times New Roman,serif" font-size="14.00">f124&lt;0.0117647061</text>
</g>
<!-- 0&#45;&gt;1 -->
<g id="edge1" class="edge">
<title>0&#45;&gt;1</title>
<path fill="none" stroke="#ff0000" d="M3130.3,-452.6C2950,-436.74 2506.63,-397.72 2315.61,-380.91"/>
<polygon fill="#ff0000" stroke="#ff0000" points="2316,-377.44 2305.73,-380.05 2315.39,-384.41 2316,-377.44"/>
<text text-anchor="middle" x="2814.21" y="-411.2" font-family="Times New Roman,serif" font-size="14.00">yes</text>
</g>
<!-- 2 -->
<g id="node3" class="node">
<title>2</title>
<ellipse fill="none" stroke="black" cx="3721.67" cy="-372" rx="86.67" ry="18"/>
<text text-anchor="middle" x="3721.67" y="-366.95" font-family="Times New Roman,serif" font-size="14.00">f344&lt;0.0117647061</text>
</g>
<!-- 0&#45;&gt;2 -->
<g id="edge2" class="edge">
<title>0&#45;&gt;2</title>
<path fill="none" stroke="#0000ff" d="M3274.42,-448.41C3369.18,-432.43 3543.79,-402.99 3644.52,-386.01"/>
<polygon fill="#0000ff" stroke="#0000ff" points="3645.06,-389.47 3654.34,-384.35 3643.89,-382.56 3645.06,-389.47"/>
<text text-anchor="middle" x="3542.99" y="-411.2" font-family="Times New Roman,serif" font-size="14.00">no, missing</text>
</g>
<!-- 3 -->
<g id="node4" class="node">
<title>3</title>
<ellipse fill="none" stroke="black" cx="1038.67" cy="-283.5" rx="82.06" ry="18"/>
<text text-anchor="middle" x="1038.67" y="-278.45" font-family="Times New Roman,serif" font-size="14.00">f528&lt;0.247058824</text>
</g>
<!-- 1&#45;&gt;3 -->
<g id="edge3" class="edge">
<title>1&#45;&gt;3</title>
<path fill="none" stroke="#ff0000" d="M2145.01,-365.12C1930.88,-349.52 1349.29,-307.14 1126.83,-290.92"/>
<polygon fill="#ff0000" stroke="#ff0000" points="1127.29,-287.45 1117.07,-290.21 1126.79,-294.43 1127.29,-287.45"/>
<text text-anchor="middle" x="1747.48" y="-322.7" font-family="Times New Roman,serif" font-size="14.00">yes</text>
</g>
<!-- 4 -->
<g id="node5" class="node">
<title>4</title>
<ellipse fill="none" stroke="black" cx="2225.67" cy="-283.5" rx="91.27" ry="18"/>
<text text-anchor="middle" x="2225.67" y="-278.45" font-family="Times New Roman,serif" font-size="14.00">f346&lt;0.00392156886</text>
</g>
<!-- 1&#45;&gt;4 -->
<g id="edge4" class="edge">
<title>1&#45;&gt;4</title>
<path fill="none" stroke="#0000ff" d="M2225.67,-353.91C2225.67,-342.26 2225.67,-326.55 2225.67,-313.02"/>
<polygon fill="#0000ff" stroke="#0000ff" points="2229.17,-313.36 2225.67,-303.36 2222.17,-313.36 2229.17,-313.36"/>
<text text-anchor="middle" x="2257.54" y="-322.7" font-family="Times New Roman,serif" font-size="14.00">no, missing</text>
</g>
<!-- 5 -->
<g id="node34" class="node">
<title>5</title>
<ellipse fill="none" stroke="black" cx="3721.67" cy="-283.5" rx="82.06" ry="18"/>
<text text-anchor="middle" x="3721.67" y="-278.45" font-family="Times New Roman,serif" font-size="14.00">f442&lt;0.101960786</text>
</g>
<!-- 2&#45;&gt;5 -->
<g id="edge33" class="edge">
<title>2&#45;&gt;5</title>
<path fill="none" stroke="#ff0000" d="M3721.67,-353.91C3721.67,-342.26 3721.67,-326.55 3721.67,-313.02"/>
<polygon fill="#ff0000" stroke="#ff0000" points="3725.17,-313.36 3721.67,-303.36 3718.17,-313.36 3725.17,-313.36"/>
<text text-anchor="middle" x="3730.67" y="-322.7" font-family="Times New Roman,serif" font-size="14.00">yes</text>
</g>
<!-- 6 -->
<g id="node35" class="node">
<title>6</title>
<ellipse fill="none" stroke="black" cx="4754.67" cy="-283.5" rx="82.06" ry="18"/>
<text text-anchor="middle" x="4754.67" y="-278.45" font-family="Times New Roman,serif" font-size="14.00">f490&lt;0.690196097</text>
</g>
<!-- 2&#45;&gt;6 -->
<g id="edge34" class="edge">
<title>2&#45;&gt;6</title>
<path fill="none" stroke="#0000ff" d="M3801.01,-364.36C3990.81,-348.46 4469.91,-308.34 4667.45,-291.8"/>
<polygon fill="#0000ff" stroke="#0000ff" points="4667.73,-295.29 4677.41,-290.97 4667.15,-288.32 4667.73,-295.29"/>
<text text-anchor="middle" x="4362.56" y="-322.7" font-family="Times New Roman,serif" font-size="14.00">no, missing</text>
</g>
<!-- 7 -->
<g id="node6" class="node">
<title>7</title>
<ellipse fill="none" stroke="black" cx="548.67" cy="-195" rx="91.27" ry="18"/>
<text text-anchor="middle" x="548.67" y="-189.95" font-family="Times New Roman,serif" font-size="14.00">f564&lt;0.00392156886</text>
</g>
<!-- 3&#45;&gt;7 -->
<g id="edge5" class="edge">
<title>3&#45;&gt;7</title>
<path fill="none" stroke="#ff0000" d="M976.11,-271.46C886.89,-255.71 723.2,-226.81 626.34,-209.71"/>
<polygon fill="#ff0000" stroke="#ff0000" points="627.1,-206.29 616.64,-208 625.88,-213.19 627.1,-206.29"/>
<text text-anchor="middle" x="846.55" y="-234.2" font-family="Times New Roman,serif" font-size="14.00">yes</text>
</g>
<!-- 8 -->
<g id="node7" class="node">
<title>8</title>
<ellipse fill="none" stroke="black" cx="1038.67" cy="-195" rx="82.06" ry="18"/>
<text text-anchor="middle" x="1038.67" y="-189.95" font-family="Times New Roman,serif" font-size="14.00">f371&lt;0.270588249</text>
</g>
<!-- 3&#45;&gt;8 -->
<g id="edge6" class="edge">
<title>3&#45;&gt;8</title>
<path fill="none" stroke="#0000ff" d="M1038.67,-265.41C1038.67,-253.76 1038.67,-238.05 1038.67,-224.52"/>
<polygon fill="#0000ff" stroke="#0000ff" points="1042.17,-224.86 1038.67,-214.86 1035.17,-224.86 1042.17,-224.86"/>
<text text-anchor="middle" x="1070.54" y="-234.2" font-family="Times New Roman,serif" font-size="14.00">no, missing</text>
</g>
<!-- 9 -->
<g id="node20" class="node">
<title>9</title>
<ellipse fill="none" stroke="black" cx="1962.67" cy="-195" rx="91.27" ry="18"/>
<text text-anchor="middle" x="1962.67" y="-189.95" font-family="Times New Roman,serif" font-size="14.00">f487&lt;0.00784313772</text>
</g>
<!-- 4&#45;&gt;9 -->
<g id="edge19" class="edge">
<title>4&#45;&gt;9</title>
<path fill="none" stroke="#ff0000" d="M2180.16,-267.53C2135.42,-252.82 2067.03,-230.33 2018.92,-214.5"/>
<polygon fill="#ff0000" stroke="#ff0000" points="2020.09,-211.2 2009.5,-211.4 2017.9,-217.85 2020.09,-211.2"/>
<text text-anchor="middle" x="2126.72" y="-234.2" font-family="Times New Roman,serif" font-size="14.00">yes</text>
</g>
<!-- 10 -->
<g id="node21" class="node">
<title>10</title>
<ellipse fill="none" stroke="black" cx="2380.67" cy="-195" rx="86.67" ry="18"/>
<text text-anchor="middle" x="2380.67" y="-189.95" font-family="Times New Roman,serif" font-size="14.00">f638&lt;0.0117647061</text>
</g>
<!-- 4&#45;&gt;10 -->
<g id="edge20" class="edge">
<title>4&#45;&gt;10</title>
<path fill="none" stroke="#0000ff" d="M2255.19,-266.03C2279.64,-252.38 2314.61,-232.87 2341.42,-217.9"/>
<polygon fill="#0000ff" stroke="#0000ff" points="2342.91,-221.08 2349.94,-213.15 2339.5,-214.97 2342.91,-221.08"/>
<text text-anchor="middle" x="2348.92" y="-234.2" font-family="Times New Roman,serif" font-size="14.00">no, missing</text>
</g>
<!-- 15 -->
<g id="node8" class="node">
<title>15</title>
<ellipse fill="none" stroke="black" cx="265.67" cy="-106.5" rx="82.06" ry="18"/>
<text text-anchor="middle" x="265.67" y="-101.45" font-family="Times New Roman,serif" font-size="14.00">f473&lt;0.294117659</text>
</g>
<!-- 7&#45;&gt;15 -->
<g id="edge7" class="edge">
<title>7&#45;&gt;15</title>
<path fill="none" stroke="#ff0000" d="M500.66,-179.33C451.49,-164.3 375.05,-140.93 322.79,-124.96"/>
<polygon fill="#ff0000" stroke="#ff0000" points="324.06,-121.69 313.47,-122.11 322.01,-128.38 324.06,-121.69"/>
<text text-anchor="middle" x="441.51" y="-145.7" font-family="Times New Roman,serif" font-size="14.00">yes</text>
</g>
<!-- 16 -->
<g id="node9" class="node">
<title>16</title>
<ellipse fill="none" stroke="black" cx="548.67" cy="-106.5" rx="82.06" ry="18"/>
<text text-anchor="middle" x="548.67" y="-101.45" font-family="Times New Roman,serif" font-size="14.00">f489&lt;0.627451003</text>
</g>
<!-- 7&#45;&gt;16 -->
<g id="edge8" class="edge">
<title>7&#45;&gt;16</title>
<path fill="none" stroke="#0000ff" d="M548.67,-176.91C548.67,-165.26 548.67,-149.55 548.67,-136.02"/>
<polygon fill="#0000ff" stroke="#0000ff" points="552.17,-136.36 548.67,-126.36 545.17,-136.36 552.17,-136.36"/>
<text text-anchor="middle" x="580.54" y="-145.7" font-family="Times New Roman,serif" font-size="14.00">no, missing</text>
</g>
<!-- 17 -->
<g id="node14" class="node">
<title>17</title>
<ellipse fill="none" stroke="black" cx="991.67" cy="-106.5" rx="86.67" ry="18"/>
<text text-anchor="middle" x="991.67" y="-101.45" font-family="Times New Roman,serif" font-size="14.00">f527&lt;0.0784313753</text>
</g>
<!-- 8&#45;&gt;17 -->
<g id="edge13" class="edge">
<title>8&#45;&gt;17</title>
<path fill="none" stroke="#ff0000" d="M1029.38,-176.91C1022.86,-164.9 1013.99,-148.59 1006.5,-134.8"/>
<polygon fill="#ff0000" stroke="#ff0000" points="1009.67,-133.3 1001.82,-126.18 1003.52,-136.64 1009.67,-133.3"/>
<text text-anchor="middle" x="1028.38" y="-145.7" font-family="Times New Roman,serif" font-size="14.00">yes</text>
</g>
<!-- 18 -->
<g id="node15" class="node">
<title>18</title>
<ellipse fill="none" stroke="black" cx="1178.67" cy="-106.5" rx="82.06" ry="18"/>
<text text-anchor="middle" x="1178.67" y="-101.45" font-family="Times New Roman,serif" font-size="14.00">f455&lt;0.196078435</text>
</g>
<!-- 8&#45;&gt;18 -->
<g id="edge14" class="edge">
<title>8&#45;&gt;18</title>
<path fill="none" stroke="#0000ff" d="M1065.33,-177.53C1087.22,-164 1118.44,-144.71 1142.58,-129.8"/>
<polygon fill="#0000ff" stroke="#0000ff" points="1144.15,-132.94 1150.82,-124.71 1140.47,-126.99 1144.15,-132.94"/>
<text text-anchor="middle" x="1153.08" y="-145.7" font-family="Times New Roman,serif" font-size="14.00">no, missing</text>
</g>
<!-- 31 -->
<g id="node10" class="node">
<title>31</title>
<ellipse fill="none" stroke="black" cx="86.67" cy="-18" rx="86.67" ry="18"/>
<text text-anchor="middle" x="86.67" y="-12.95" font-family="Times New Roman,serif" font-size="14.00">leaf=&#45;0.0244631842</text>
</g>
<!-- 15&#45;&gt;31 -->
<g id="edge9" class="edge">
<title>15&#45;&gt;31</title>
<path fill="none" stroke="#ff0000" d="M232.83,-89.63C204,-75.7 161.83,-55.32 130.19,-40.03"/>
<polygon fill="#ff0000" stroke="#ff0000" points="131.79,-36.92 121.26,-35.72 128.74,-43.22 131.79,-36.92"/>
<text text-anchor="middle" x="201.2" y="-57.2" font-family="Times New Roman,serif" font-size="14.00">yes</text>
</g>
<!-- 32 -->
<g id="node11" class="node">
<title>32</title>
<ellipse fill="none" stroke="black" cx="265.67" cy="-18" rx="74.38" ry="18"/>
<text text-anchor="middle" x="265.67" y="-12.95" font-family="Times New Roman,serif" font-size="14.00">leaf=0.17403315</text>
</g>
<!-- 15&#45;&gt;32 -->
<g id="edge10" class="edge">
<title>15&#45;&gt;32</title>
<path fill="none" stroke="#0000ff" d="M265.67,-88.41C265.67,-76.76 265.67,-61.05 265.67,-47.52"/>
<polygon fill="#0000ff" stroke="#0000ff" points="269.17,-47.86 265.67,-37.86 262.17,-47.86 269.17,-47.86"/>
<text text-anchor="middle" x="297.54" y="-57.2" font-family="Times New Roman,serif" font-size="14.00">no, missing</text>
</g>
<!-- 33 -->
<g id="node12" class="node">
<title>33</title>
<ellipse fill="none" stroke="black" cx="444.67" cy="-18" rx="86.67" ry="18"/>
<text text-anchor="middle" x="444.67" y="-12.95" font-family="Times New Roman,serif" font-size="14.00">leaf=&#45;0.0121851396</text>
</g>
<!-- 16&#45;&gt;33 -->
<g id="edge11" class="edge">
<title>16&#45;&gt;33</title>
<path fill="none" stroke="#ff0000" d="M528.61,-88.82C513.03,-75.86 491.2,-57.7 473.71,-43.16"/>
<polygon fill="#ff0000" stroke="#ff0000" points="476.1,-40.59 466.18,-36.89 471.63,-45.98 476.1,-40.59"/>
<text text-anchor="middle" x="514.98" y="-57.2" font-family="Times New Roman,serif" font-size="14.00">yes</text>
</g>
<!-- 34 -->
<g id="node13" class="node">
<title>34</title>
<ellipse fill="none" stroke="black" cx="628.67" cy="-18" rx="78.99" ry="18"/>
<text text-anchor="middle" x="628.67" y="-12.95" font-family="Times New Roman,serif" font-size="14.00">leaf=0.223397985</text>
</g>
<!-- 16&#45;&gt;34 -->
<g id="edge12" class="edge">
<title>16&#45;&gt;34</title>
<path fill="none" stroke="#0000ff" d="M564.47,-88.41C576.09,-75.85 592.06,-58.58 605.17,-44.41"/>
<polygon fill="#0000ff" stroke="#0000ff" points="607.65,-46.88 611.87,-37.17 602.51,-42.13 607.65,-46.88"/>
<text text-anchor="middle" x="627.71" y="-57.2" font-family="Times New Roman,serif" font-size="14.00">no, missing</text>
</g>
<!-- 35 -->
<g id="node16" class="node">
<title>35</title>
<ellipse fill="none" stroke="black" cx="812.67" cy="-18" rx="86.67" ry="18"/>
<text text-anchor="middle" x="812.67" y="-12.95" font-family="Times New Roman,serif" font-size="14.00">leaf=&#45;0.0173076913</text>
</g>
<!-- 17&#45;&gt;35 -->
<g id="edge15" class="edge">
<title>17&#45;&gt;35</title>
<path fill="none" stroke="#ff0000" d="M958.42,-89.43C929.53,-75.47 887.5,-55.16 855.99,-39.93"/>
<polygon fill="#ff0000" stroke="#ff0000" points="857.63,-36.84 847.1,-35.64 854.58,-43.14 857.63,-36.84"/>
<text text-anchor="middle" x="927.2" y="-57.2" font-family="Times New Roman,serif" font-size="14.00">yes</text>
</g>
<!-- 36 -->
<g id="node17" class="node">
<title>36</title>
<ellipse fill="none" stroke="black" cx="996.67" cy="-18" rx="78.99" ry="18"/>
<text text-anchor="middle" x="996.67" y="-12.95" font-family="Times New Roman,serif" font-size="14.00">leaf=0.274818122</text>
</g>
<!-- 17&#45;&gt;36 -->
<g id="edge16" class="edge">
<title>17&#45;&gt;36</title>
<path fill="none" stroke="#0000ff" d="M992.65,-88.41C993.33,-76.76 994.24,-61.05 995.02,-47.52"/>
<polygon fill="#0000ff" stroke="#0000ff" points="998.49,-48.05 995.58,-37.86 991.5,-47.64 998.49,-48.05"/>
<text text-anchor="middle" x="1026.49" y="-57.2" font-family="Times New Roman,serif" font-size="14.00">no, missing</text>
</g>
<!-- 37 -->
<g id="node18" class="node">
<title>37</title>
<ellipse fill="none" stroke="black" cx="1172.67" cy="-18" rx="78.99" ry="18"/>
<text text-anchor="middle" x="1172.67" y="-12.95" font-family="Times New Roman,serif" font-size="14.00">leaf=0.145360813</text>
</g>
<!-- 18&#45;&gt;37 -->
<g id="edge17" class="edge">
<title>18&#45;&gt;37</title>
<path fill="none" stroke="#ff0000" d="M1177.48,-88.41C1176.67,-76.76 1175.58,-61.05 1174.64,-47.52"/>
<polygon fill="#ff0000" stroke="#ff0000" points="1178.16,-47.59 1173.97,-37.86 1171.17,-48.08 1178.16,-47.59"/>
<text text-anchor="middle" x="1185.2" y="-57.2" font-family="Times New Roman,serif" font-size="14.00">yes</text>
</g>
<!-- 38 -->
<g id="node19" class="node">
<title>38</title>
<ellipse fill="none" stroke="black" cx="1356.67" cy="-18" rx="86.67" ry="18"/>
<text text-anchor="middle" x="1356.67" y="-12.95" font-family="Times New Roman,serif" font-size="14.00">leaf=&#45;0.0203389842</text>
</g>
<!-- 18&#45;&gt;38 -->
<g id="edge18" class="edge">
<title>18&#45;&gt;38</title>
<path fill="none" stroke="#0000ff" d="M1211.31,-89.63C1239.99,-75.7 1281.92,-55.32 1313.39,-40.03"/>
<polygon fill="#0000ff" stroke="#0000ff" points="1314.8,-43.24 1322.26,-35.72 1311.74,-36.94 1314.8,-43.24"/>
<text text-anchor="middle" x="1315.48" y="-57.2" font-family="Times New Roman,serif" font-size="14.00">no, missing</text>
</g>
<!-- 19 -->
<g id="node22" class="node">
<title>19</title>
<ellipse fill="none" stroke="black" cx="1740.67" cy="-106.5" rx="82.06" ry="18"/>
<text text-anchor="middle" x="1740.67" y="-101.45" font-family="Times New Roman,serif" font-size="14.00">f544&lt;0.784313738</text>
</g>
<!-- 9&#45;&gt;19 -->
<g id="edge21" class="edge">
<title>9&#45;&gt;19</title>
<path fill="none" stroke="#ff0000" d="M1922.72,-178.44C1885.56,-163.96 1830.06,-142.33 1790.12,-126.77"/>
<polygon fill="#ff0000" stroke="#ff0000" points="1791.55,-123.57 1780.96,-123.2 1789,-130.09 1791.55,-123.57"/>
<text text-anchor="middle" x="1880.55" y="-145.7" font-family="Times New Roman,serif" font-size="14.00">yes</text>
</g>
<!-- 20 -->
<g id="node23" class="node">
<title>20</title>
<ellipse fill="none" stroke="black" cx="1962.67" cy="-106.5" rx="82.06" ry="18"/>
<text text-anchor="middle" x="1962.67" y="-101.45" font-family="Times New Roman,serif" font-size="14.00">f344&lt;0.121568628</text>
</g>
<!-- 9&#45;&gt;20 -->
<g id="edge22" class="edge">
<title>9&#45;&gt;20</title>
<path fill="none" stroke="#0000ff" d="M1962.67,-176.91C1962.67,-165.26 1962.67,-149.55 1962.67,-136.02"/>
<polygon fill="#0000ff" stroke="#0000ff" points="1966.17,-136.36 1962.67,-126.36 1959.17,-136.36 1966.17,-136.36"/>
<text text-anchor="middle" x="1994.54" y="-145.7" font-family="Times New Roman,serif" font-size="14.00">no, missing</text>
</g>
<!-- 21 -->
<g id="node28" class="node">
<title>21</title>
<ellipse fill="none" stroke="black" cx="2380.67" cy="-106.5" rx="82.06" ry="18"/>
<text text-anchor="middle" x="2380.67" y="-101.45" font-family="Times New Roman,serif" font-size="14.00">f528&lt;0.450980395</text>
</g>
<!-- 10&#45;&gt;21 -->
<g id="edge27" class="edge">
<title>10&#45;&gt;21</title>
<path fill="none" stroke="#ff0000" d="M2380.67,-176.91C2380.67,-165.26 2380.67,-149.55 2380.67,-136.02"/>
<polygon fill="#ff0000" stroke="#ff0000" points="2384.17,-136.36 2380.67,-126.36 2377.17,-136.36 2384.17,-136.36"/>
<text text-anchor="middle" x="2389.67" y="-145.7" font-family="Times New Roman,serif" font-size="14.00">yes</text>
</g>
<!-- 22 -->
<g id="node29" class="node">
<title>22</title>
<ellipse fill="none" stroke="black" cx="2651.67" cy="-106.5" rx="82.06" ry="18"/>
<text text-anchor="middle" x="2651.67" y="-101.45" font-family="Times New Roman,serif" font-size="14.00">f661&lt;0.149019614</text>
</g>
<!-- 10&#45;&gt;22 -->
<g id="edge28" class="edge">
<title>10&#45;&gt;22</title>
<path fill="none" stroke="#0000ff" d="M2426.64,-179.33C2473.25,-164.45 2545.44,-141.41 2595.43,-125.45"/>
<polygon fill="#0000ff" stroke="#0000ff" points="2596.47,-128.79 2604.93,-122.42 2594.34,-122.12 2596.47,-128.79"/>
<text text-anchor="middle" x="2572.31" y="-145.7" font-family="Times New Roman,serif" font-size="14.00">no, missing</text>
</g>
<!-- 39 -->
<g id="node24" class="node">
<title>39</title>
<ellipse fill="none" stroke="black" cx="1552.67" cy="-18" rx="91.27" ry="18"/>
<text text-anchor="middle" x="1552.67" y="-12.95" font-family="Times New Roman,serif" font-size="14.00">leaf=&#45;0.00132686668</text>
</g>
<!-- 19&#45;&gt;39 -->
<g id="edge23" class="edge">
<title>19&#45;&gt;39</title>
<path fill="none" stroke="#ff0000" d="M1706.62,-89.84C1676.16,-75.82 1631.29,-55.18 1597.84,-39.78"/>
<polygon fill="#ff0000" stroke="#ff0000" points="1599.34,-36.62 1588.79,-35.62 1596.41,-42.98 1599.34,-36.62"/>
<text text-anchor="middle" x="1672.5" y="-57.2" font-family="Times New Roman,serif" font-size="14.00">yes</text>
</g>
<!-- 40 -->
<g id="node25" class="node">
<title>40</title>
<ellipse fill="none" stroke="black" cx="1740.67" cy="-18" rx="78.99" ry="18"/>
<text text-anchor="middle" x="1740.67" y="-12.95" font-family="Times New Roman,serif" font-size="14.00">leaf=0.174533218</text>
</g>
<!-- 19&#45;&gt;40 -->
<g id="edge24" class="edge">
<title>19&#45;&gt;40</title>
<path fill="none" stroke="#0000ff" d="M1740.67,-88.41C1740.67,-76.76 1740.67,-61.05 1740.67,-47.52"/>
<polygon fill="#0000ff" stroke="#0000ff" points="1744.17,-47.86 1740.67,-37.86 1737.17,-47.86 1744.17,-47.86"/>
<text text-anchor="middle" x="1772.54" y="-57.2" font-family="Times New Roman,serif" font-size="14.00">no, missing</text>
</g>
<!-- 41 -->
<g id="node26" class="node">
<title>41</title>
<ellipse fill="none" stroke="black" cx="1916.67" cy="-18" rx="78.99" ry="18"/>
<text text-anchor="middle" x="1916.67" y="-12.95" font-family="Times New Roman,serif" font-size="14.00">leaf=0.241949007</text>
</g>
<!-- 20&#45;&gt;41 -->
<g id="edge25" class="edge">
<title>20&#45;&gt;41</title>
<path fill="none" stroke="#ff0000" d="M1953.58,-88.41C1947.19,-76.4 1938.52,-60.09 1931.18,-46.3"/>
<polygon fill="#ff0000" stroke="#ff0000" points="1934.39,-44.87 1926.6,-37.69 1928.21,-48.16 1934.39,-44.87"/>
<text text-anchor="middle" x="1952.79" y="-57.2" font-family="Times New Roman,serif" font-size="14.00">yes</text>
</g>
<!-- 42 -->
<g id="node27" class="node">
<title>42</title>
<ellipse fill="none" stroke="black" cx="2100.67" cy="-18" rx="86.67" ry="18"/>
<text text-anchor="middle" x="2100.67" y="-12.95" font-family="Times New Roman,serif" font-size="14.00">leaf=&#45;0.0200468935</text>
</g>
<!-- 20&#45;&gt;42 -->
<g id="edge26" class="edge">
<title>20&#45;&gt;42</title>
<path fill="none" stroke="#0000ff" d="M1988.95,-89.03C2010.43,-75.56 2041.03,-56.38 2064.77,-41.5"/>
<polygon fill="#0000ff" stroke="#0000ff" points="2066.59,-44.49 2073.2,-36.22 2062.87,-38.56 2066.59,-44.49"/>
<text text-anchor="middle" x="2075.9" y="-57.2" font-family="Times New Roman,serif" font-size="14.00">no, missing</text>
</g>
<!-- 43 -->
<g id="node30" class="node">
<title>43</title>
<ellipse fill="none" stroke="black" cx="2291.67" cy="-18" rx="86.67" ry="18"/>
<text text-anchor="middle" x="2291.67" y="-12.95" font-family="Times New Roman,serif" font-size="14.00">leaf=&#45;0.0263706762</text>
</g>
<!-- 21&#45;&gt;43 -->
<g id="edge29" class="edge">
<title>21&#45;&gt;43</title>
<path fill="none" stroke="#ff0000" d="M2363.51,-88.82C2350.29,-75.98 2331.83,-58.04 2316.93,-43.56"/>
<polygon fill="#ff0000" stroke="#ff0000" points="2319.77,-41.44 2310.16,-36.98 2314.89,-46.46 2319.77,-41.44"/>
<text text-anchor="middle" x="2353.14" y="-57.2" font-family="Times New Roman,serif" font-size="14.00">yes</text>
</g>
<!-- 44 -->
<g id="node31" class="node">
<title>44</title>
<ellipse fill="none" stroke="black" cx="2475.67" cy="-18" rx="78.99" ry="18"/>
<text text-anchor="middle" x="2475.67" y="-12.95" font-family="Times New Roman,serif" font-size="14.00">leaf=0.106451608</text>
</g>
<!-- 21&#45;&gt;44 -->
<g id="edge30" class="edge">
<title>21&#45;&gt;44</title>
<path fill="none" stroke="#0000ff" d="M2398.98,-88.82C2413.09,-75.98 2432.79,-58.04 2448.7,-43.56"/>
<polygon fill="#0000ff" stroke="#0000ff" points="2450.92,-46.26 2455.96,-36.94 2446.21,-41.09 2450.92,-46.26"/>
<text text-anchor="middle" x="2468.55" y="-57.2" font-family="Times New Roman,serif" font-size="14.00">no, missing</text>
</g>
<!-- 45 -->
<g id="node32" class="node">
<title>45</title>
<ellipse fill="none" stroke="black" cx="2651.67" cy="-18" rx="78.99" ry="18"/>
<text text-anchor="middle" x="2651.67" y="-12.95" font-family="Times New Roman,serif" font-size="14.00">leaf=0.199696049</text>
</g>
<!-- 22&#45;&gt;45 -->
<g id="edge31" class="edge">
<title>22&#45;&gt;45</title>
<path fill="none" stroke="#ff0000" d="M2651.67,-88.41C2651.67,-76.76 2651.67,-61.05 2651.67,-47.52"/>
<polygon fill="#ff0000" stroke="#ff0000" points="2655.17,-47.86 2651.67,-37.86 2648.17,-47.86 2655.17,-47.86"/>
<text text-anchor="middle" x="2660.67" y="-57.2" font-family="Times New Roman,serif" font-size="14.00">yes</text>
</g>
<!-- 46 -->
<g id="node33" class="node">
<title>46</title>
<ellipse fill="none" stroke="black" cx="2835.67" cy="-18" rx="86.67" ry="18"/>
<text text-anchor="middle" x="2835.67" y="-12.95" font-family="Times New Roman,serif" font-size="14.00">leaf=&#45;0.0268482491</text>
</g>
<!-- 22&#45;&gt;46 -->
<g id="edge32" class="edge">
<title>22&#45;&gt;46</title>
<path fill="none" stroke="#0000ff" d="M2685.41,-89.63C2715.28,-75.6 2759.05,-55.02 2791.66,-39.69"/>
<polygon fill="#0000ff" stroke="#0000ff" points="2792.89,-42.98 2800.45,-35.56 2789.91,-36.64 2792.89,-42.98"/>
<text text-anchor="middle" x="2792.02" y="-57.2" font-family="Times New Roman,serif" font-size="14.00">no, missing</text>
</g>
<!-- 11 -->
<g id="node36" class="node">
<title>11</title>
<ellipse fill="none" stroke="black" cx="3482.67" cy="-195" rx="82.06" ry="18"/>
<text text-anchor="middle" x="3482.67" y="-189.95" font-family="Times New Roman,serif" font-size="14.00">f370&lt;0.274509817</text>
</g>
<!-- 5&#45;&gt;11 -->
<g id="edge35" class="edge">
<title>5&#45;&gt;11</title>
<path fill="none" stroke="#ff0000" d="M3680.31,-267.53C3639.91,-252.91 3578.29,-230.61 3534.61,-214.8"/>
<polygon fill="#ff0000" stroke="#ff0000" points="3535.93,-211.56 3525.34,-211.44 3533.55,-218.14 3535.93,-211.56"/>
<text text-anchor="middle" x="3632.57" y="-234.2" font-family="Times New Roman,serif" font-size="14.00">yes</text>
</g>
<!-- 12 -->
<g id="node37" class="node">
<title>12</title>
<ellipse fill="none" stroke="black" cx="3920.67" cy="-195" rx="82.06" ry="18"/>
<text text-anchor="middle" x="3920.67" y="-189.95" font-family="Times New Roman,serif" font-size="14.00">f520&lt;0.290196091</text>
</g>
<!-- 5&#45;&gt;12 -->
<g id="edge36" class="edge">
<title>5&#45;&gt;12</title>
<path fill="none" stroke="#0000ff" d="M3757.24,-267.04C3790.01,-252.79 3838.81,-231.58 3874.55,-216.05"/>
<polygon fill="#0000ff" stroke="#0000ff" points="3875.56,-219.42 3883.34,-212.23 3872.77,-213 3875.56,-219.42"/>
<text text-anchor="middle" x="3870.87" y="-234.2" font-family="Times New Roman,serif" font-size="14.00">no, missing</text>
</g>
<!-- 13 -->
<g id="node50" class="node">
<title>13</title>
<ellipse fill="none" stroke="black" cx="4754.67" cy="-195" rx="86.67" ry="18"/>
<text text-anchor="middle" x="4754.67" y="-189.95" font-family="Times New Roman,serif" font-size="14.00">f520&lt;0.0745098069</text>
</g>
<!-- 6&#45;&gt;13 -->
<g id="edge49" class="edge">
<title>6&#45;&gt;13</title>
<path fill="none" stroke="#ff0000" d="M4754.67,-265.41C4754.67,-253.76 4754.67,-238.05 4754.67,-224.52"/>
<polygon fill="#ff0000" stroke="#ff0000" points="4758.17,-224.86 4754.67,-214.86 4751.17,-224.86 4758.17,-224.86"/>
<text text-anchor="middle" x="4763.67" y="-234.2" font-family="Times New Roman,serif" font-size="14.00">yes</text>
</g>
<!-- 14 -->
<g id="node51" class="node">
<title>14</title>
<ellipse fill="none" stroke="black" cx="5314.67" cy="-195" rx="82.06" ry="18"/>
<text text-anchor="middle" x="5314.67" y="-189.95" font-family="Times New Roman,serif" font-size="14.00">f567&lt;0.176470593</text>
</g>
<!-- 6&#45;&gt;14 -->
<g id="edge50" class="edge">
<title>6&#45;&gt;14</title>
<path fill="none" stroke="#0000ff" d="M4820.28,-272.37C4924.43,-256.28 5127.12,-224.97 5237.88,-207.86"/>
<polygon fill="#0000ff" stroke="#0000ff" points="5238.11,-211.37 5247.46,-206.38 5237.04,-204.45 5238.11,-211.37"/>
<text text-anchor="middle" x="5116.7" y="-234.2" font-family="Times New Roman,serif" font-size="14.00">no, missing</text>
</g>
<!-- 23 -->
<g id="node38" class="node">
<title>23</title>
<ellipse fill="none" stroke="black" cx="3200.67" cy="-106.5" rx="91.27" ry="18"/>
<text text-anchor="middle" x="3200.67" y="-101.45" font-family="Times New Roman,serif" font-size="14.00">f690&lt;0.00392156886</text>
</g>
<!-- 11&#45;&gt;23 -->
<g id="edge37" class="edge">
<title>11&#45;&gt;23</title>
<path fill="none" stroke="#ff0000" d="M3436.42,-179.81C3387.98,-164.96 3311.79,-141.59 3259.2,-125.46"/>
<polygon fill="#ff0000" stroke="#ff0000" points="3260.39,-122.16 3249.8,-122.57 3258.34,-128.85 3260.39,-122.16"/>
<text text-anchor="middle" x="3375.92" y="-145.7" font-family="Times New Roman,serif" font-size="14.00">yes</text>
</g>
<!-- 24 -->
<g id="node39" class="node">
<title>24</title>
<ellipse fill="none" stroke="black" cx="3482.67" cy="-106.5" rx="82.06" ry="18"/>
<text text-anchor="middle" x="3482.67" y="-101.45" font-family="Times New Roman,serif" font-size="14.00">f549&lt;0.988235295</text>
</g>
<!-- 11&#45;&gt;24 -->
<g id="edge38" class="edge">
<title>11&#45;&gt;24</title>
<path fill="none" stroke="#0000ff" d="M3482.67,-176.91C3482.67,-165.26 3482.67,-149.55 3482.67,-136.02"/>
<polygon fill="#0000ff" stroke="#0000ff" points="3486.17,-136.36 3482.67,-126.36 3479.17,-136.36 3486.17,-136.36"/>
<text text-anchor="middle" x="3514.54" y="-145.7" font-family="Times New Roman,serif" font-size="14.00">no, missing</text>
</g>
<!-- 25 -->
<g id="node44" class="node">
<title>25</title>
<ellipse fill="none" stroke="black" cx="3920.67" cy="-106.5" rx="82.06" ry="18"/>
<text text-anchor="middle" x="3920.67" y="-101.45" font-family="Times New Roman,serif" font-size="14.00">f463&lt;0.925490201</text>
</g>
<!-- 12&#45;&gt;25 -->
<g id="edge43" class="edge">
<title>12&#45;&gt;25</title>
<path fill="none" stroke="#ff0000" d="M3920.67,-176.91C3920.67,-165.26 3920.67,-149.55 3920.67,-136.02"/>
<polygon fill="#ff0000" stroke="#ff0000" points="3924.17,-136.36 3920.67,-126.36 3917.17,-136.36 3924.17,-136.36"/>
<text text-anchor="middle" x="3929.67" y="-145.7" font-family="Times New Roman,serif" font-size="14.00">yes</text>
</g>
<!-- 26 -->
<g id="node45" class="node">
<title>26</title>
<ellipse fill="none" stroke="black" cx="4121.67" cy="-106.5" rx="91.27" ry="18"/>
<text text-anchor="middle" x="4121.67" y="-101.45" font-family="Times New Roman,serif" font-size="14.00">f431&lt;0.00392156886</text>
</g>
<!-- 12&#45;&gt;26 -->
<g id="edge44" class="edge">
<title>12&#45;&gt;26</title>
<path fill="none" stroke="#0000ff" d="M3956.6,-178.54C3989.49,-164.38 4038.37,-143.34 4074.41,-127.84"/>
<polygon fill="#0000ff" stroke="#0000ff" points="4075.49,-131.18 4083.29,-124.01 4072.72,-124.75 4075.49,-131.18"/>
<text text-anchor="middle" x="4071.04" y="-145.7" font-family="Times New Roman,serif" font-size="14.00">no, missing</text>
</g>
<!-- 47 -->
<g id="node40" class="node">
<title>47</title>
<ellipse fill="none" stroke="black" cx="3019.67" cy="-18" rx="78.99" ry="18"/>
<text text-anchor="middle" x="3019.67" y="-12.95" font-family="Times New Roman,serif" font-size="14.00">leaf=0.285712987</text>
</g>
<!-- 23&#45;&gt;47 -->
<g id="edge39" class="edge">
<title>23&#45;&gt;47</title>
<path fill="none" stroke="#ff0000" d="M3167.05,-89.43C3137.65,-75.39 3094.8,-54.91 3062.87,-39.65"/>
<polygon fill="#ff0000" stroke="#ff0000" points="3064.39,-36.5 3053.86,-35.34 3061.38,-42.81 3064.39,-36.5"/>
<text text-anchor="middle" x="3135.38" y="-57.2" font-family="Times New Roman,serif" font-size="14.00">yes</text>
</g>
<!-- 48 -->
<g id="node41" class="node">
<title>48</title>
<ellipse fill="none" stroke="black" cx="3200.67" cy="-18" rx="83.6" ry="18"/>
<text text-anchor="middle" x="3200.67" y="-12.95" font-family="Times New Roman,serif" font-size="14.00">leaf=0.0570422523</text>
</g>
<!-- 23&#45;&gt;48 -->
<g id="edge40" class="edge">
<title>23&#45;&gt;48</title>
<path fill="none" stroke="#0000ff" d="M3200.67,-88.41C3200.67,-76.76 3200.67,-61.05 3200.67,-47.52"/>
<polygon fill="#0000ff" stroke="#0000ff" points="3204.17,-47.86 3200.67,-37.86 3197.17,-47.86 3204.17,-47.86"/>
<text text-anchor="middle" x="3232.54" y="-57.2" font-family="Times New Roman,serif" font-size="14.00">no, missing</text>
</g>
<!-- 49 -->
<g id="node42" class="node">
<title>49</title>
<ellipse fill="none" stroke="black" cx="3388.67" cy="-18" rx="86.67" ry="18"/>
<text text-anchor="middle" x="3388.67" y="-12.95" font-family="Times New Roman,serif" font-size="14.00">leaf=&#45;0.0270676687</text>
</g>
<!-- 24&#45;&gt;49 -->
<g id="edge41" class="edge">
<title>24&#45;&gt;49</title>
<path fill="none" stroke="#ff0000" d="M3464.54,-88.82C3450.59,-75.98 3431.09,-58.04 3415.35,-43.56"/>
<polygon fill="#ff0000" stroke="#ff0000" points="3417.9,-41.14 3408.17,-36.95 3413.16,-46.29 3417.9,-41.14"/>
<text text-anchor="middle" x="3453.09" y="-57.2" font-family="Times New Roman,serif" font-size="14.00">yes</text>
</g>
<!-- 50 -->
<g id="node43" class="node">
<title>50</title>
<ellipse fill="none" stroke="black" cx="3572.67" cy="-18" rx="78.99" ry="18"/>
<text text-anchor="middle" x="3572.67" y="-12.95" font-family="Times New Roman,serif" font-size="14.00">leaf=0.155769214</text>
</g>
<!-- 24&#45;&gt;50 -->
<g id="edge42" class="edge">
<title>24&#45;&gt;50</title>
<path fill="none" stroke="#0000ff" d="M3500.02,-88.82C3513.38,-75.98 3532.05,-58.04 3547.12,-43.56"/>
<polygon fill="#0000ff" stroke="#0000ff" points="3549.18,-46.42 3553.97,-36.97 3544.33,-41.38 3549.18,-46.42"/>
<text text-anchor="middle" x="3567.6" y="-57.2" font-family="Times New Roman,serif" font-size="14.00">no, missing</text>
</g>
<!-- 51 -->
<g id="node46" class="node">
<title>51</title>
<ellipse fill="none" stroke="black" cx="3756.67" cy="-18" rx="86.67" ry="18"/>
<text text-anchor="middle" x="3756.67" y="-12.95" font-family="Times New Roman,serif" font-size="14.00">leaf=&#45;0.0314917155</text>
</g>
<!-- 25&#45;&gt;51 -->
<g id="edge45" class="edge">
<title>25&#45;&gt;51</title>
<path fill="none" stroke="#ff0000" d="M3890.2,-89.43C3864.13,-75.68 3826.38,-55.77 3797.66,-40.62"/>
<polygon fill="#ff0000" stroke="#ff0000" points="3799.34,-37.55 3788.86,-35.98 3796.07,-43.74 3799.34,-37.55"/>
<text text-anchor="middle" x="3862.36" y="-57.2" font-family="Times New Roman,serif" font-size="14.00">yes</text>
</g>
<!-- 52 -->
<g id="node47" class="node">
<title>52</title>
<ellipse fill="none" stroke="black" cx="3940.67" cy="-18" rx="78.99" ry="18"/>
<text text-anchor="middle" x="3940.67" y="-12.95" font-family="Times New Roman,serif" font-size="14.00">leaf=0.040384613</text>
</g>
<!-- 25&#45;&gt;52 -->
<g id="edge46" class="edge">
<title>25&#45;&gt;52</title>
<path fill="none" stroke="#0000ff" d="M3924.62,-88.41C3927.31,-76.76 3930.94,-61.05 3934.07,-47.52"/>
<polygon fill="#0000ff" stroke="#0000ff" points="3937.47,-48.36 3936.31,-37.82 3930.65,-46.78 3937.47,-48.36"/>
<text text-anchor="middle" x="3964.33" y="-57.2" font-family="Times New Roman,serif" font-size="14.00">no, missing</text>
</g>
<!-- 53 -->
<g id="node48" class="node">
<title>53</title>
<ellipse fill="none" stroke="black" cx="4121.67" cy="-18" rx="83.6" ry="18"/>
<text text-anchor="middle" x="4121.67" y="-12.95" font-family="Times New Roman,serif" font-size="14.00">leaf=0.0345132723</text>
</g>
<!-- 26&#45;&gt;53 -->
<g id="edge47" class="edge">
<title>26&#45;&gt;53</title>
<path fill="none" stroke="#ff0000" d="M4121.67,-88.41C4121.67,-76.76 4121.67,-61.05 4121.67,-47.52"/>
<polygon fill="#ff0000" stroke="#ff0000" points="4125.17,-47.86 4121.67,-37.86 4118.17,-47.86 4125.17,-47.86"/>
<text text-anchor="middle" x="4130.67" y="-57.2" font-family="Times New Roman,serif" font-size="14.00">yes</text>
</g>
<!-- 54 -->
<g id="node49" class="node">
<title>54</title>
<ellipse fill="none" stroke="black" cx="4302.67" cy="-18" rx="78.99" ry="18"/>
<text text-anchor="middle" x="4302.67" y="-12.95" font-family="Times New Roman,serif" font-size="14.00">leaf=0.248805448</text>
</g>
<!-- 26&#45;&gt;54 -->
<g id="edge48" class="edge">
<title>26&#45;&gt;54</title>
<path fill="none" stroke="#0000ff" d="M4155.29,-89.43C4184.68,-75.39 4227.53,-54.91 4259.46,-39.65"/>
<polygon fill="#0000ff" stroke="#0000ff" points="4260.96,-42.81 4268.47,-35.34 4257.94,-36.5 4260.96,-42.81"/>
<text text-anchor="middle" x="4260.25" y="-57.2" font-family="Times New Roman,serif" font-size="14.00">no, missing</text>
</g>
<!-- 27 -->
<g id="node52" class="node">
<title>27</title>
<ellipse fill="none" stroke="black" cx="4665.67" cy="-106.5" rx="86.67" ry="18"/>
<text text-anchor="middle" x="4665.67" y="-101.45" font-family="Times New Roman,serif" font-size="14.00">f526&lt;0.0392156877</text>
</g>
<!-- 13&#45;&gt;27 -->
<g id="edge51" class="edge">
<title>13&#45;&gt;27</title>
<path fill="none" stroke="#ff0000" d="M4737.08,-176.91C4724.04,-164.23 4706.05,-146.75 4691.4,-132.51"/>
<polygon fill="#ff0000" stroke="#ff0000" points="4693.91,-130.07 4684.3,-125.61 4689.03,-135.09 4693.91,-130.07"/>
<text text-anchor="middle" x="4727.14" y="-145.7" font-family="Times New Roman,serif" font-size="14.00">yes</text>
</g>
<!-- 28 -->
<g id="node53" class="node">
<title>28</title>
<ellipse fill="none" stroke="black" cx="4861.67" cy="-106.5" rx="91.27" ry="18"/>
<text text-anchor="middle" x="4861.67" y="-101.45" font-family="Times New Roman,serif" font-size="14.00">f261&lt;0.00392156886</text>
</g>
<!-- 13&#45;&gt;28 -->
<g id="edge52" class="edge">
<title>13&#45;&gt;28</title>
<path fill="none" stroke="#0000ff" d="M4775.55,-177.12C4791.61,-164.14 4814,-146.04 4831.92,-131.54"/>
<polygon fill="#0000ff" stroke="#0000ff" points="4834.08,-134.3 4839.66,-125.29 4829.68,-128.86 4834.08,-134.3"/>
<text text-anchor="middle" x="4849.62" y="-145.7" font-family="Times New Roman,serif" font-size="14.00">no, missing</text>
</g>
<!-- 29 -->
<g id="node58" class="node">
<title>29</title>
<ellipse fill="none" stroke="black" cx="5314.67" cy="-106.5" rx="82.06" ry="18"/>
<text text-anchor="middle" x="5314.67" y="-101.45" font-family="Times New Roman,serif" font-size="14.00">f400&lt;0.211764708</text>
</g>
<!-- 14&#45;&gt;29 -->
<g id="edge57" class="edge">
<title>14&#45;&gt;29</title>
<path fill="none" stroke="#ff0000" d="M5314.67,-176.91C5314.67,-165.26 5314.67,-149.55 5314.67,-136.02"/>
<polygon fill="#ff0000" stroke="#ff0000" points="5318.17,-136.36 5314.67,-126.36 5311.17,-136.36 5318.17,-136.36"/>
<text text-anchor="middle" x="5323.67" y="-145.7" font-family="Times New Roman,serif" font-size="14.00">yes</text>
</g>
<!-- 30 -->
<g id="node59" class="node">
<title>30</title>
<ellipse fill="none" stroke="black" cx="5603.67" cy="-106.5" rx="91.27" ry="18"/>
<text text-anchor="middle" x="5603.67" y="-101.45" font-family="Times New Roman,serif" font-size="14.00">f519&lt;0.00392156886</text>
</g>
<!-- 14&#45;&gt;30 -->
<g id="edge58" class="edge">
<title>14&#45;&gt;30</title>
<path fill="none" stroke="#0000ff" d="M5361.74,-179.91C5411.57,-165 5490.33,-141.42 5544.36,-125.25"/>
<polygon fill="#0000ff" stroke="#0000ff" points="5545.14,-128.67 5553.71,-122.45 5543.13,-121.97 5545.14,-128.67"/>
<text text-anchor="middle" x="5516.93" y="-145.7" font-family="Times New Roman,serif" font-size="14.00">no, missing</text>
</g>
<!-- 55 -->
<g id="node54" class="node">
<title>55</title>
<ellipse fill="none" stroke="black" cx="4483.67" cy="-18" rx="83.6" ry="18"/>
<text text-anchor="middle" x="4483.67" y="-12.95" font-family="Times New Roman,serif" font-size="14.00">leaf=0.0133105787</text>
</g>
<!-- 27&#45;&gt;55 -->
<g id="edge53" class="edge">
<title>27&#45;&gt;55</title>
<path fill="none" stroke="#ff0000" d="M4632.28,-89.63C4602.75,-75.6 4559.45,-55.02 4527.2,-39.69"/>
<polygon fill="#ff0000" stroke="#ff0000" points="4529.05,-36.69 4518.51,-35.56 4526.04,-43.01 4529.05,-36.69"/>
<text text-anchor="middle" x="4599.97" y="-57.2" font-family="Times New Roman,serif" font-size="14.00">yes</text>
</g>
<!-- 56 -->
<g id="node55" class="node">
<title>56</title>
<ellipse fill="none" stroke="black" cx="4671.67" cy="-18" rx="86.67" ry="18"/>
<text text-anchor="middle" x="4671.67" y="-12.95" font-family="Times New Roman,serif" font-size="14.00">leaf=&#45;0.0329888389</text>
</g>
<!-- 27&#45;&gt;56 -->
<g id="edge54" class="edge">
<title>27&#45;&gt;56</title>
<path fill="none" stroke="#0000ff" d="M4666.85,-88.41C4667.66,-76.76 4668.75,-61.05 4669.69,-47.52"/>
<polygon fill="#0000ff" stroke="#0000ff" points="4673.16,-48.08 4670.36,-37.86 4666.17,-47.59 4673.16,-48.08"/>
<text text-anchor="middle" x="4701.08" y="-57.2" font-family="Times New Roman,serif" font-size="14.00">no, missing</text>
</g>
<!-- 57 -->
<g id="node56" class="node">
<title>57</title>
<ellipse fill="none" stroke="black" cx="4855.67" cy="-18" rx="78.99" ry="18"/>
<text text-anchor="middle" x="4855.67" y="-12.95" font-family="Times New Roman,serif" font-size="14.00">leaf=0.146590903</text>
</g>
<!-- 28&#45;&gt;57 -->
<g id="edge55" class="edge">
<title>28&#45;&gt;57</title>
<path fill="none" stroke="#ff0000" d="M4860.48,-88.41C4859.67,-76.76 4858.58,-61.05 4857.64,-47.52"/>
<polygon fill="#ff0000" stroke="#ff0000" points="4861.16,-47.59 4856.97,-37.86 4854.17,-48.08 4861.16,-47.59"/>
<text text-anchor="middle" x="4868.2" y="-57.2" font-family="Times New Roman,serif" font-size="14.00">yes</text>
</g>
<!-- 58 -->
<g id="node57" class="node">
<title>58</title>
<ellipse fill="none" stroke="black" cx="5043.67" cy="-18" rx="91.27" ry="18"/>
<text text-anchor="middle" x="5043.67" y="-12.95" font-family="Times New Roman,serif" font-size="14.00">leaf=&#45;0.00783582218</text>
</g>
<!-- 28&#45;&gt;58 -->
<g id="edge56" class="edge">
<title>28&#45;&gt;58</title>
<path fill="none" stroke="#0000ff" d="M4895.47,-89.43C4924.88,-75.46 4967.68,-55.11 4999.73,-39.88"/>
<polygon fill="#0000ff" stroke="#0000ff" points="5000.84,-43.23 5008.37,-35.78 4997.83,-36.91 5000.84,-43.23"/>
<text text-anchor="middle" x="5000.84" y="-57.2" font-family="Times New Roman,serif" font-size="14.00">no, missing</text>
</g>
<!-- 59 -->
<g id="node60" class="node">
<title>59</title>
<ellipse fill="none" stroke="black" cx="5231.67" cy="-18" rx="78.99" ry="18"/>
<text text-anchor="middle" x="5231.67" y="-12.95" font-family="Times New Roman,serif" font-size="14.00">leaf=0.102439024</text>
</g>
<!-- 29&#45;&gt;59 -->
<g id="edge59" class="edge">
<title>29&#45;&gt;59</title>
<path fill="none" stroke="#ff0000" d="M5298.27,-88.41C5286.1,-75.73 5269.33,-58.25 5255.66,-44.01"/>
<polygon fill="#ff0000" stroke="#ff0000" points="5258.53,-41.94 5249.08,-37.15 5253.48,-46.79 5258.53,-41.94"/>
<text text-anchor="middle" x="5289.6" y="-57.2" font-family="Times New Roman,serif" font-size="14.00">yes</text>
</g>
<!-- 60 -->
<g id="node61" class="node">
<title>60</title>
<ellipse fill="none" stroke="black" cx="5415.67" cy="-18" rx="86.67" ry="18"/>
<text text-anchor="middle" x="5415.67" y="-12.95" font-family="Times New Roman,serif" font-size="14.00">leaf=&#45;0.0145434057</text>
</g>
<!-- 29&#45;&gt;60 -->
<g id="edge60" class="edge">
<title>29&#45;&gt;60</title>
<path fill="none" stroke="#0000ff" d="M5334.14,-88.82C5349.27,-75.86 5370.47,-57.7 5387.46,-43.16"/>
<polygon fill="#0000ff" stroke="#0000ff" points="5389.44,-46.07 5394.76,-36.91 5384.89,-40.75 5389.44,-46.07"/>
<text text-anchor="middle" x="5406.09" y="-57.2" font-family="Times New Roman,serif" font-size="14.00">no, missing</text>
</g>
<!-- 61 -->
<g id="node62" class="node">
<title>61</title>
<ellipse fill="none" stroke="black" cx="5603.67" cy="-18" rx="83.6" ry="18"/>
<text text-anchor="middle" x="5603.67" y="-12.95" font-family="Times New Roman,serif" font-size="14.00">leaf=0.0540983602</text>
</g>
<!-- 30&#45;&gt;61 -->
<g id="edge61" class="edge">
<title>30&#45;&gt;61</title>
<path fill="none" stroke="#ff0000" d="M5603.67,-88.41C5603.67,-76.76 5603.67,-61.05 5603.67,-47.52"/>
<polygon fill="#ff0000" stroke="#ff0000" points="5607.17,-47.86 5603.67,-37.86 5600.17,-47.86 5607.17,-47.86"/>
<text text-anchor="middle" x="5612.67" y="-57.2" font-family="Times New Roman,serif" font-size="14.00">yes</text>
</g>
<!-- 62 -->
<g id="node63" class="node">
<title>62</title>
<ellipse fill="none" stroke="black" cx="5779.67" cy="-18" rx="74.38" ry="18"/>
<text text-anchor="middle" x="5779.67" y="-12.95" font-family="Times New Roman,serif" font-size="14.00">leaf=0.26767242</text>
</g>
<!-- 30&#45;&gt;62 -->
<g id="edge62" class="edge">
<title>30&#45;&gt;62</title>
<path fill="none" stroke="#0000ff" d="M5636.36,-89.43C5664.94,-75.39 5706.61,-54.91 5737.66,-39.65"/>
<polygon fill="#0000ff" stroke="#0000ff" points="5738.95,-42.91 5746.38,-35.36 5735.87,-36.63 5738.95,-42.91"/>
<text text-anchor="middle" x="5739.31" y="-57.2" font-family="Times New Roman,serif" font-size="14.00">no, missing</text>
</g>
</g>
</svg>
